HIERARCHY
ROOT Hips
{
	OFFSET 0.000000 88.474243 0.000000
	CHANNELS 6 Xposition Yposition Zposition Zrotation Yrotation Xrotation 
	JOINT Hips_Spine
	{
		OFFSET 0.000000 0.000000 0.000000
		CHANNELS 3 Zrotation Yrotation Xrotation
		JOINT Spine
		{
			OFFSET 0.005100 8.711998 -0.691000
			CHANNELS 3 Zrotation Yrotation Xrotation
			JOINT Spine1
			{
				OFFSET -0.009200 8.660301 -1.275000
				CHANNELS 3 Zrotation Yrotation Xrotation
				JOINT Spine2
				{
					OFFSET 0.006300 9.852501 -1.857000
					CHANNELS 3 Zrotation Yrotation Xrotation
					JOINT Spine2_Neck
					{
						OFFSET 0.000000 0.000000 0.000000
						CHANNELS 3 Zrotation Yrotation Xrotation
						JOINT Neck
						{
							OFFSET 0.016300 11.420799 -0.263300
							CHANNELS 3 Zrotation Yrotation Xrotation
							End Site #name: Head
							{
								OFFSET -0.019200 9.262405 2.362500
							}
						}
					}
					JOINT Spine2_LeftShoulder
					{
						OFFSET 0.000000 0.000000 0.000000
						CHANNELS 3 Zrotation Yrotation Xrotation
						JOINT LeftShoulder
						{
							OFFSET 5.616900 6.732201 -0.345700
							CHANNELS 3 Zrotation Yrotation Xrotation
							JOINT LeftArm
							{
								OFFSET 10.664888 -0.183372 -2.440700
								CHANNELS 3 Zrotation Yrotation Xrotation
								JOINT LeftForeArm
								{
									OFFSET 27.459126 0.000000 0.000000
									CHANNELS 3 Zrotation Yrotation Xrotation
									End Site #name: LeftHand
									{
										OFFSET 21.306858 0.000000 0.000000
									}
								}
							}
						}
					}
					JOINT Spine2_RightShoulder
					{
						OFFSET 0.000000 0.000000 0.000000
						CHANNELS 3 Zrotation Yrotation Xrotation
						JOINT RightShoulder
						{
							OFFSET -5.580300 6.737503 -0.344400
							CHANNELS 3 Zrotation Yrotation Xrotation
							JOINT RightArm
							{
								OFFSET -10.679335 -0.188484 -2.383900
								CHANNELS 3 Zrotation Yrotation Xrotation
								JOINT RightForeArm
								{
									OFFSET -27.503529 0.000000 0.000000
									CHANNELS 3 Zrotation Yrotation Xrotation
									End Site #name: RightHand
									{
										OFFSET -21.306808 0.000000 0.000000
									}
								}
							}
						}
					}
				}
			}
		}
	}
	JOINT Hips_LeftUpLeg
	{
		OFFSET 0.000000 0.000000 0.000000
		CHANNELS 3 Zrotation Yrotation Xrotation
		JOINT LeftUpLeg
		{
			OFFSET 6.857700 -6.739601 0.312100
			CHANNELS 3 Zrotation Yrotation Xrotation
			JOINT LeftLeg
			{
				OFFSET -0.367590 -34.731552 -4.572400
				CHANNELS 3 Zrotation Yrotation Xrotation
				End Site #name: LeftFoot
				{
					OFFSET 0.367590 -34.656704 -6.067400
				}
			}
		}
	}
	JOINT Hips_RightUpLeg
	{
		OFFSET 0.000000 0.000000 0.000000
		CHANNELS 3 Zrotation Yrotation Xrotation
		JOINT RightUpLeg
		{
			OFFSET -6.876100 -6.733299 0.301000
			CHANNELS 3 Zrotation Yrotation Xrotation
			JOINT RightLeg
			{
				OFFSET 0.347353 -34.795158 -4.515900
				CHANNELS 3 Zrotation Yrotation Xrotation
				End Site #name: RightFoot
				{
					OFFSET -0.347353 -34.589367 -6.070300
				}
			}
		}
	}
}
MOTION
Frames: 9
Frame Time: 0.041667
0.415413 0.039058 -1.057007 -1.257596 4.110654 -3.190823 0.000000 -0.000000 0.000000 0.923805 1.718385 1.098929 -2.140259 0.823488 4.104549 0.000000 0.000000 0.000000 -2.434755 0.950939 3.414716 0.377271 -1.453075 9.029487 -2.162900 0.656805 4.236468 -0.475542 5.625357 -0.934888 -69.387771 -6.602786 59.910574 0.308446 -33.488626 -0.075307 -2.115208 0.854136 3.422619 -0.568285 8.159326 2.197529 71.456929 5.952616 45.755463 0.558914 78.679544 0.835183 0.000000 0.000000 -0.000000 3.907657 7.588906 -13.185277 1.237683 5.369754 16.917183 0.000000 -0.000000 0.000000 -2.589841 -9.215075 -12.122052 -0.071294 -1.121939 16.357897 
0.344117 0.039068 -1.092888 -1.213146 4.115361 -3.186501 0.000000 -0.000000 0.000000 0.938439 1.716040 1.102097 -2.122652 0.816294 4.096315 0.000000 0.000000 0.000000 -2.417217 0.944515 3.410434 0.374236 -1.449245 9.022323 -2.146493 0.649940 4.229092 -0.491002 5.594501 -0.936003 -69.396462 -6.674200 59.801243 0.307228 -33.458518 -0.078280 -2.100026 0.848206 3.415133 -0.581796 8.161386 2.193764 71.466968 5.916246 45.834095 0.528727 78.385921 0.806529 0.000000 0.000000 -0.000000 3.925923 7.604754 -13.194504 1.242649 5.372646 16.905368 0.000000 -0.000000 0.000000 -2.572293 -9.210095 -12.132597 -0.071278 -1.128390 16.366233 
0.274507 0.038627 -1.128592 -1.168699 4.122897 -3.181856 0.000000 -0.000000 0.000000 0.952030 1.710028 1.108143 -2.102643 0.807681 4.089487 0.000000 0.000000 0.000000 -2.397147 0.936214 3.409070 0.371541 -1.440874 9.009242 -2.127872 0.640854 4.223501 -0.502371 5.568049 -0.936847 -69.417140 -6.740728 59.675130 0.307403 -33.435775 -0.083066 -2.082716 0.839866 3.408770 -0.593432 8.160869 2.190000 71.468271 5.889410 45.894946 0.501914 78.111489 0.780576 0.000000 0.000000 -0.000000 3.942663 7.622124 -13.208589 1.246633 5.374460 16.897654 0.000000 -0.000000 0.000000 -2.554301 -9.204922 -12.143182 -0.068948 -1.134460 16.374626 
0.207073 0.037827 -1.164174 -1.124210 4.130249 -3.176491 0.000000 -0.000000 0.000000 0.965698 1.702394 1.110520 -2.080383 0.796738 4.082650 0.000000 0.000000 0.000000 -2.374638 0.925598 3.408281 0.369527 -1.432349 8.995793 -2.106550 0.630942 4.219221 -0.518774 5.542811 -0.939151 -69.436882 -6.830556 59.538511 0.305720 -33.355872 -0.085570 -2.064034 0.830399 3.403132 -0.609745 8.162681 2.183989 71.450632 5.875312 45.956676 0.481580 77.883417 0.760684 0.000000 0.000000 -0.000000 3.961353 7.640486 -13.221764 1.252009 5.376263 16.888279 0.000000 -0.000000 0.000000 -2.535096 -9.201709 -12.153589 -0.068114 -1.139967 16.380605 
0.142369 0.036721 -1.199544 -1.078986 4.140723 -3.171180 0.000000 -0.000000 0.000000 0.979022 1.692631 1.115252 -2.058792 0.784391 4.078485 0.000000 0.000000 0.000000 -2.353524 0.914056 3.409564 0.369244 -1.421104 8.977581 -2.086240 0.619384 4.217307 -0.533224 5.518298 -0.941148 -69.447833 -6.911707 59.404198 0.303742 -33.238295 -0.087538 -2.046131 0.819601 3.400975 -0.621785 8.159963 2.179450 71.409788 5.874149 46.001264 0.460844 77.715228 0.739225 0.000000 0.000000 -0.000000 3.976994 7.665708 -13.240294 1.257024 5.376584 16.884770 0.000000 -0.000000 0.000000 -2.517288 -9.197121 -12.166920 -0.066145 -1.146170 16.394542 
0.080395 0.035354 -1.234855 -1.034530 4.148156 -3.165797 0.000000 -0.000000 0.000000 0.992879 1.680907 1.124436 -2.038399 0.771545 4.074676 0.000000 0.000000 0.000000 -2.332579 0.901263 3.411062 0.368055 -1.407549 8.957195 -2.066896 0.606649 4.214977 -0.547618 5.496868 -0.942089 -69.480136 -7.011095 59.264107 0.300986 -33.084087 -0.088751 -2.028994 0.808118 3.399712 -0.638074 8.155119 2.176513 71.347716 5.869238 46.053048 0.450360 77.639650 0.727740 0.000000 0.000000 -0.000000 3.993843 7.686835 -13.255959 1.262928 5.379188 16.874051 0.000000 -0.000000 0.000000 -2.501138 -9.197428 -12.181639 -0.064516 -1.152260 16.411484 
0.021054 0.033848 -1.270094 -0.990874 4.156350 -3.160800 0.000000 -0.000000 0.000000 1.007663 1.668856 1.135739 -2.018361 0.758850 4.073081 0.000000 0.000000 0.000000 -2.312970 0.887318 3.414262 0.367313 -1.392631 8.934181 -2.051562 0.594188 4.214707 -0.557868 5.474479 -0.943878 -69.503294 -7.091561 59.138273 0.299298 -32.913299 -0.090292 -2.013223 0.796330 3.399042 -0.650699 8.155697 2.173202 71.252417 5.875758 46.069537 0.442499 77.645596 0.717929 0.000000 0.000000 -0.000000 4.008231 7.709842 -13.268529 1.267370 5.379649 16.862784 0.000000 -0.000000 0.000000 -2.485232 -9.192249 -12.195808 -0.065681 -1.160079 16.424988 
-0.035650 0.032197 -1.305348 -0.947868 4.163448 -3.156088 0.000000 -0.000000 0.000000 1.022347 1.658240 1.149458 -2.000521 0.746387 4.072829 0.000000 0.000000 0.000000 -2.294221 0.873667 3.417974 0.367720 -1.377976 8.906933 -2.037098 0.581327 4.214699 -0.570429 5.461519 -0.947702 -69.531077 -7.189816 58.998846 0.296674 -32.761481 -0.092517 -1.997937 0.784717 3.399440 -0.659054 8.157584 2.172940 71.147367 5.879683 46.103038 0.438376 77.691756 0.711147 0.000000 0.000000 -0.000000 4.023497 7.735188 -13.279921 1.271498 5.384530 16.849721 0.000000 -0.000000 0.000000 -2.471966 -9.194233 -12.209447 -0.065432 -1.166531 16.439201 
-0.089722 0.030496 -1.340654 -0.905364 4.172582 -3.152644 0.000000 -0.000000 0.000000 1.037607 1.645578 1.163676 -1.983688 0.735068 4.073587 0.000000 0.000000 0.000000 -2.277233 0.861247 3.424635 0.368773 -1.363153 8.880300 -2.023206 0.569375 4.218837 -0.582991 5.445273 -0.950351 -69.561331 -7.274181 58.867452 0.294190 -32.558788 -0.091705 -1.984074 0.773809 3.401554 -0.669199 8.165386 2.173465 71.034356 5.882080 46.137875 0.432186 77.755888 0.702076 0.000000 0.000000 -0.000000 4.037597 7.761181 -13.288892 1.277108 5.390344 16.834674 0.000000 -0.000000 0.000000 -2.459783 -9.196333 -12.221909 -0.068637 -1.174170 16.451295 
